<?xml version="1.0" encoding="UTF-8"?>
<svg id="Layer_1" xmlns="http://www.w3.org/2000/svg" version="1.1" viewBox="0 0 1000 1000">
  <!-- Generator: Adobe Illustrator 29.0.1, SVG Export Plug-In . SVG Version: 2.1.0 Build 192)  -->
  <defs>
    <style>
      .st0 {
        fill: #715b3d;
      }

      .st1 {
        fill: #2f363a;
      }

      .st2 {
        fill: #fff;
        font-family: AdobeArabic-Regular, 'Adobe Arabic';
        font-size: 103px;
      }

      .st3 {
        fill: #ac9471;
      }

      .st4 {
        fill: #ad9571;
      }

      .st5 {
        fill: #6a7b83;
      }
    </style>
  </defs>
  <g>
    <path class="st5" d="M816.51,486.15c-22.75-5.85-46.43,13.74-65.71,12.47-34.86-2.29-92.28-36.6-146.27-37.2-47.38-.53-110.7,36.47-147.01,2.69-14.32-13.32-55.13-84.9-60.03-103.69-20.33-77.9,84.49-204.12,116.61-274.3,98.61,6.29,286-51.45,302.45,94.54,10.7,94.93-7.97,208.52-.04,305.49Z"/>
    <path class="st1" d="M533.96,724.65c-102.64-262.07,99.84-264.3,279.54-175.61,40.59,212.88-133.99,177.19-279.54,175.61Z"/>
    <path class="st0" d="M451.19,83.04c5.78,23.54,5.88,40.02-3.27,62.93-15.18,38-184.27,240.65-219.97,271.3-16.03,13.77-32.48,19.83-53.92,18.52V174.38c0-27.6,55.87-91.34,85.04-91.34h192.12Z"/>
    <path class="st3" d="M488.98,725.54h-236.21c-6.7,0-40.77-21.52-47.46-28.13-44.83-44.29-28.84-116.47-30.96-173.15,60.93-3.59,128.27-38.33,188.84-22.53,60.98,15.9,117.79,164.71,125.8,223.81Z"/>
    <path class="st4" d="M323.45,361.26c43.56-12.74,71.7,60.43,74.68,93.02,3.64,39.83-184.26,40.82-147.88-26.78,3.85-7.16,68.46-64.85,73.2-66.24Z"/>
  </g>
  <text class="st2" transform="translate(459.74 206.03)"><tspan x="0" y="0">شركة الهلال</tspan><tspan x="315.74" y="0"> </tspan><tspan x="0" y="123.6">الفضي الدولية</tspan></text>
</svg>