<?xml version="1.0" encoding="UTF-8"?>
<svg id="Layer_1" xmlns="http://www.w3.org/2000/svg" version="1.1" viewBox="0 0 1000 1000">
  <!-- Generator: Adobe Illustrator 29.0.1, SVG Export Plug-In . SVG Version: 2.1.0 Build 192)  -->
  <defs>
    <style>
      .st0 {
        fill: #fff;
      }
    </style>
  </defs>
  <path class="st0" d="M100.29,447.94c-.14,4.63,2.07,10.19,5.77,16.33-1.28,1.21-2.99,2.64-4.71,3.85.29,8.2.86,16.61.86,24.52s-.78,13.62-4.63,20.25c8.41,2,9.91,4.56,9.91,10.55,0,2.42-.78,5.49-2.92,9.62-11.19,10.98-22.67,14.4-32.08,14.4-6.84,0-13.05-2.92-17.04-6.7-4.85-5.13-7.41-11.48-7.41-19.11,0-8.55,2.42-15.68,5.35-22.38l2.78,1.07c-1.85,5.2-3.21,10.05-3.21,14.97s1.14,9.77,4.13,14.04c4.21,5.13,9.55,8.13,16.25,8.13s14.04-1.43,20.53-5.35c3.64-2.21,7.41-4.85,9.05-7.06,0-2.71-11.91-5.13-22.46-5.92l-.5-.64,3.42-7.41c8.06-1.21,11.19-3.14,12.83-5.2.14-2.57.14-5.2.14-7.77-.14-8.55-.71-19.82-1.85-32.94-.29-3.28-.78-6.27-.78-8.91,0-1.57.71-3.21,2.14-4.78,1-1.21,2.35-2.57,3.92-3.92l.5.36ZM70.21,567.85c-2.92-2.78-5.49-5.06-8.34-7.41,1.85-2.57,3.85-4.92,5.63-6.77,2.92,2.28,5.35,4.63,8.13,7.63-2,2.85-3.42,4.71-5.42,6.56ZM83.97,566.92c-2.92-2.78-5.49-5.06-8.34-7.41,1.85-2.57,3.85-4.92,5.63-6.77,2.92,2.28,5.35,4.63,8.13,7.63-2,2.85-3.42,4.71-5.42,6.56Z"/>
  <path class="st0" d="M143.42,513.46c-8.34,0-15.54-3.92-15.54-13.4,0-4.71,1.78-8.7,4.56-12.26,3.28-3.56,6.84-5.92,10.19-5.92,4.13,0,7.98,2.92,10.76,8.06,2.71,4.92,4.56,11.69,4.56,19.6,0,6.63-1.64,12.9-5.42,18.75-6.34,9.62-12.4,13.54-18.32,13.54-6.56,0-13.33-2.14-20.46-6.99l1.07-2.28c3.49,1.78,6.92,2.42,10.41,2.42,7.2,0,14.4-3.64,20.96-10.91,3.21-3.49,6.2-7.7,6.7-11.91-3.07.86-6.27,1.28-9.48,1.28ZM140.29,490.86c-3.35,0-7.98,3.71-7.98,6.34,0,4.42,6.27,7.56,12.12,7.56,2.71,0,5.49-.29,8.06-.93-1.92-7.2-6.06-12.97-12.19-12.97Z"/>
  <path class="st0" d="M218.35,520.94h-1.35c-6.42,0-11.76-2.71-14.54-11.62h-.36c-.57,2.71-2.07,4.99-5.13,6.84-4.71,2.85-9.55,4.78-14.33,4.78-7.98,0-12.4-4.85-12.4-13.19,0-1.78.07-3.49.21-5.28l2.78-.21c.29,5.92,3.21,9.55,10.05,9.55,3.78,0,8.27-1.64,11.62-3.56,2.64-1.5,4.63-3.64,4.63-5.35,0-4.85-2.57-14.33-5.92-26.52,1.64-2.5,3.21-5.06,5.06-7.34l.43.29c2.64,10.27,4.85,21.24,6.77,31.72,1.28,7.06,5.92,10.76,11.26,10.76h1.21v9.12Z"/>
  <path class="st0" d="M219.92,511.82c2.28,0,4.92-.29,7.98-1.92,2.5-1.43,3.78-3.99,3.78-7.7-.14-11.41-.93-23.88-2.07-37-.29-3.28-.71-6.27-.71-8.91,0-1.57.71-3.21,2.14-4.78,1-1.21,2.35-2.57,3.92-3.92l.5.36c-.14,4.63,2.07,10.19,5.77,16.33-1.28,1.21-2.78,2.42-4.49,3.64.29,8.2.93,16.82.93,24.74s-.78,13.62-2.85,17.89c-1.5,3.64-3.21,6.63-6.49,8.27-2.78,1.43-6.13,2.14-8.91,2.14h-1.07c-3.92,0-4.99-2.85-4.99-4.78,0-1.71,1.14-4.35,4.99-4.35h1.57Z"/>
  <path class="st0" d="M253.57,522.15c.71-4.49.78-9.55.78-14.26v-6.99c0-13.05-1.43-32.01-2.57-44.34,2-2.57,4.78-5.56,6.99-7.56l.64.21c1.5,15.54,1.85,33.58,1.85,50.19,0,4.35-.14,8.63-.5,11.76-.21,3.92-2.14,6.92-6.27,11.48l-.93-.5Z"/>
  <path class="st0" d="M305.55,524.5c0-5.99,1.5-12.55,4.63-19.68l2.99,1.35c-1.85,3.92-2.92,8.41-2.92,13.9,0,13.12,9.55,20.46,21.1,20.46,3.78,0,8.13-.78,13.62-2.78,5.92-2.35,10.69-4.85,13.19-7.77,0-1.28-5.28-2.28-9.41-3.07-7.77-1.21-13.83-3.35-13.83-11.19,0-3.78,2.5-11.05,6.84-15.54,4.13-4.35,9.34-7.34,14.61-7.34,3.78,0,6.2,2.35,7.2,5.06,2,4.99,5.63,8.7,9.05,10.62,4.06-6.2,8.13-12.26,14.4-17.75,4.56-3.99,9.62-7.34,15.97-7.34,10.12,0,16.11,7.41,16.11,15.75,0,4.06-1.57,8.48-3.64,12.62h9.48v9.12h-1.85c-7.13,0-13.76-.71-21.32-2.5-4.35,1.35-9.27,2.5-16.61,2.5-4.49,0-8.63-.57-11.98-1.85l-3.92,7.56-1-.21c.21-3.07.57-6.2,1.14-9.27-2.14-.93-6.06-4.63-7.98-9.77-1.43-3.56-3.92-5.13-7.49-5.13-6.27,0-14.12,6.13-14.12,10.48,0,2.85,4.71,4.71,11.69,5.92,6.27,1.07,9.05,2.35,10.34,5.56.57,1.43.86,2.85.86,4.28,0,2.21-1,4.99-2.28,7.84-1.43,2.28-4.63,4.85-9.7,7.56-7.27,3.78-14.26,5.85-21.32,5.85-13.33,0-23.88-7.98-23.88-25.24ZM328.22,569.27c-2.92-2.78-5.49-5.06-8.34-7.41,1.85-2.57,3.85-4.92,5.63-6.77,2.92,2.28,5.35,4.63,8.13,7.63-2,2.85-3.42,4.71-5.42,6.56ZM341.98,568.35c-2.92-2.78-5.49-5.06-8.34-7.41,1.85-2.57,3.85-4.92,5.63-6.77,2.92,2.28,5.35,4.63,8.13,7.63-2,2.85-3.42,4.71-5.42,6.56ZM389.31,511.82c7.2,0,14.69-1.64,18.54-3.21,3.49-1.43,5.85-3.28,5.85-5.35-.93-6.13-6.99-10.62-13.33-10.62-8.41,0-16.11,6.77-23.95,17.54,2.57.86,6.56,1.64,12.9,1.64ZM387.46,458.85c2.92,2.14,5.77,4.71,8.55,7.63-1.57,2.57-3.49,4.92-5.92,6.99-2.78-2.64-5.56-4.92-8.41-7.34,1.92-2.57,3.85-5.06,5.77-7.27Z"/>
  <path class="st0" d="M426.17,511.82c3.92,0,8.34-1,11.48-1.71-2.28-3.85-2.5-7.34-2.5-10.84,0-5.42,1.64-11.76,6.42-16.75,3.71-3.99,8.2-6.63,10.76-6.63s5.7,2.85,8.34,7.91c1.71,3.28,2.71,6.63,2.71,10.12,0,6.56-1.92,11.69-4.78,16.61,2.71.78,6.34,1.28,11.12,1.28h2.28v9.12h-2.07c-7.13,0-14.26-1.35-23.31-4.56-9.05,3.21-15.54,4.56-20.39,4.56h-1.28c-3.92,0-4.99-2.85-4.99-4.78,0-1.71,1.14-4.35,4.99-4.35h1.21ZM459.46,499.27c0-2.57-1-4.99-1.71-6.42-1.92-3.78-4.13-6.42-7.06-6.42-5.56,0-10.98,6.63-12.26,11.91,1,4.13,3.64,7.63,9.77,9.48,4.92-1,11.26-5.63,11.26-8.55ZM448.2,451.72c2.92,2.14,5.77,4.71,8.55,7.63-1.57,2.57-3.49,4.92-5.92,6.99-2.78-2.64-5.56-4.92-8.41-7.34,1.92-2.57,3.85-5.06,5.77-7.27Z"/>
  <path class="st0" d="M473.58,511.82c2.28,0,4.92-.29,7.98-1.92,2.5-1.43,3.78-3.99,3.78-7.7-.14-11.41-.93-23.88-2.07-37-.29-3.28-.71-6.27-.71-8.91,0-1.57.71-3.21,2.14-4.78,1-1.21,2.35-2.57,3.92-3.92l.5.36c-.14,4.63,2.07,10.19,5.77,16.33-1.28,1.21-2.78,2.42-4.49,3.64.29,8.2.93,16.82.93,24.74s-.78,13.62-2.85,17.89c-1.5,3.64-3.21,6.63-6.49,8.27-2.78,1.43-6.13,2.14-8.91,2.14h-1.07c-3.92,0-4.99-2.85-4.99-4.78,0-1.71,1.14-4.35,4.99-4.35h1.57Z"/>
  <path class="st0" d="M507.22,522.15c.71-4.49.78-9.55.78-14.26v-6.99c0-13.05-1.43-32.01-2.57-44.34,2-2.57,4.78-5.56,6.99-7.56l.64.21c1.5,15.54,1.85,33.58,1.85,50.19,0,4.35-.14,8.63-.5,11.76-.21,3.92-2.14,6.92-6.27,11.48l-.93-.5Z"/>
  <path class="st0" d="M604.19,447.94c0,5.06,2.21,10.62,5.99,16.47-1.35,1.35-2.92,2.64-4.85,3.99.36,9.2.86,20.53.86,29.73,0,4.85,0,10.84-3.49,20.96-2.21,3.56-4.99,5.99-8.13,7.98-4.56,2.99-10.19,4.49-14.9,4.49-6.2,0-11.33-2.14-14.83-6.13-3.28-3.78-5.06-9.2-5.06-16.11,0-5.99,1.92-11.98,4.78-17.96l2.57,1c-1.78,4.06-2.99,8.27-2.99,12.4s1.14,7.84,3.64,11.05c2.92,3.85,7.27,5.77,12.33,5.77,4.78,0,8.84-1.35,12.33-3.42,3.56-1.85,6.34-4.06,7.77-6.7.14-1.5.21-2.99.21-4.42,0-10.76-.71-23.95-1.85-39.85-.21-2.92-.64-6.2-.64-9.34,0-2.07.21-3.99,1.5-5.63,1-1.5,2.5-2.99,4.28-4.49l.5.21Z"/>
  <path class="st0" d="M663.43,447.58c.43,13.9.71,27.87.71,41.78,0,6.27.14,11.76,1.85,15.9,1.43,3.42,4.78,6.56,8.63,6.56h.57v9.12h-1.35c-6.63,0-14.76-5.99-14.76-19.68l-.5-.07c-2.78,10.27-8.91,15.33-15.54,18.39-5.13,2-8.84,2.85-14.54,2.85l-7.77-.71-.29-.5c11.55-4.35,20.32-8.84,27.16-13.33-1.21-7.06-8.06-18.32-20.53-34.86-3.64-4.92-7.41-9.2-7.41-11.69,0-1.78,1.14-4.63,1.92-6.56h.36c3.71,3.78,8.7,7.06,13.47,10.12l-2.42,4.21c3.78,5.2,7.56,10.69,11.41,17.25,2.92,5.06,5.63,10.69,5.63,15.26,0,1.57-.14,2.92-.29,4.49l.21.07c2.14-2.07,3.78-4.06,5.13-6.13,2.85-4.56,2.85-9.55,2.85-21.81,0-8.2-.57-16.47-.93-24.81,1.92-2.35,3.56-4.28,5.85-6.06l.57.21Z"/>
  <path class="st0" d="M683.11,511.82c1.14-4.99,2.35-9.98,3.85-15.18,1.85-6.7,4.49-12.9,8.13-18.32l.64-.21c.64,1.35,1.64,2.78,2.64,4.28,5.28,7.49,9.34,14.04,9.34,20.03,0,3.14-.36,6.27-1.35,9.41h13.9v9.12h-1.85c-1.28,0-4.13-.14-5.99-.71l-.36.14c1.92,3.14,2.92,6.7,2.92,9.62s-.86,6.27-2.28,8.55c-2.07,3.49-6.27,6.7-10.69,6.7-3.21,0-7.06-.86-10.12-2.85-5.99-3.78-9.7-11.12-9.7-18.32v-3.49c-1.64.21-3.78.36-5.63.36h-1.35c-3.92,0-4.99-2.85-4.99-4.78,0-1.71,1.14-4.35,4.99-4.35h7.91ZM690.88,530.64c3.78,4.42,9.05,7.13,13.62,7.13,2.71,0,4.13-1.5,4.13-3.49s-.36-5.13-2.78-8.55c-2.21-3.14-5.7-5.56-11.41-5.56-2.71,0-5.35.21-8.06.64.21,3.21,2.07,7.06,4.49,9.84ZM698.29,510.82c3.42-.93,4.71-2.28,4.71-3.64,0-4.56-4.28-10.76-8.84-17.18h-.36c-2.42,7.06-4.71,14.33-6.7,21.81,4.13,0,7.98-.14,11.19-1Z"/>
  <path class="st0" d="M721.82,511.82c2.28,0,4.92-.29,7.98-1.92,2.5-1.43,3.78-3.99,3.78-7.7-.14-11.41-.93-23.88-2.07-37-.29-3.28-.71-6.27-.71-8.91,0-1.57.71-3.21,2.14-4.78,1-1.21,2.35-2.57,3.92-3.92l.5.36c-.14,4.63,2.07,10.19,5.77,16.33-1.28,1.21-2.78,2.42-4.49,3.64.29,8.2.93,16.82.93,24.74s-.78,13.62-2.85,17.89c-1.5,3.64-3.21,6.63-6.49,8.27-2.78,1.43-6.13,2.14-8.91,2.14h-1.07c-3.92,0-4.99-2.85-4.99-4.78,0-1.71,1.14-4.35,4.99-4.35h1.57Z"/>
  <path class="st0" d="M755.47,522.15c.71-4.49.78-9.55.78-14.26v-6.99c0-13.05-1.43-32.01-2.57-44.34,2-2.57,4.78-5.56,6.99-7.56l.64.21c1.5,15.54,1.85,33.58,1.85,50.19,0,4.35-.14,8.63-.5,11.76-.21,3.92-2.14,6.92-6.27,11.48l-.93-.5Z"/>
  <path class="st0" d="M820.64,514.17c-7.49,0-12.97-2.64-12.97-8.34,0-2.07.71-4.71,2.35-8.34,2.99-6.34,10.48-12.83,22.74-19.6l-.43-5.35c1.78-2.07,3.71-4.13,5.63-5.85h.78c.29,11.05.29,22.17.43,33.22.07,4.99.57,8.2,2.71,10.05,1.64,1.43,4.35,1.85,7.49,1.85h1.71v9.12h-1.57c-6.99,0-12.05-1.85-14.76-9.91-4.06,1.78-8.55,3.14-14.12,3.14ZM833.25,485.8c-12.69,6.56-19.32,11.83-19.32,15.61,0,2.78,4.28,3.99,9.12,3.99,3.07,0,6.34-.64,10.55-2l-.36-17.61ZM824.84,460.56c-2.92-2.78-5.49-5.06-8.34-7.41,1.85-2.57,3.85-4.92,5.63-6.77,2.92,2.28,5.35,4.63,8.13,7.63-2,2.85-3.42,4.71-5.42,6.56ZM838.6,459.63c-2.92-2.78-5.49-5.06-8.34-7.41,1.85-2.57,3.85-4.92,5.63-6.77,2.92,2.28,5.35,4.63,8.13,7.63-2,2.85-3.42,4.71-5.42,6.56Z"/>
  <path class="st0" d="M895.42,444.23c-1.57,2.92-3.42,5.85-5.35,8.77-3.64.93-7.63,2.14-11.48,3.49-7.56,2.64-15.33,5.77-23.45,9.34v.21l11.62,4.49-1.71,3.56c10.98,8.91,18.32,17.96,18.32,25.45,0,6.63-1.78,11.9-4.56,14.76-4.49,3.99-11.62,6.63-24.88,6.63h-2.85c-3.92,0-4.99-2.85-4.99-4.78,0-1.71,1.14-4.35,4.99-4.35h4.49c7.34,0,14.19-.71,19.03-3.71,2.57-1.57,3.92-2.99,3.92-3.85,0-3.21-2.21-6.99-4.92-10.69-3.14-4.28-9.77-11.12-21.46-20.17-2.07-1.57-2.57-4.13-2.57-6.56,0-1.43.71-2.99,1.64-4.56.78-1.28,2.14-2.71,5.35-4.35,8.34-4.21,21.96-8.91,38.35-14.26l.5.57Z"/>
  <path class="st0" d="M949.46,509.75c2.5-1.85,2.85-3.92,5.06-11.33l4.28-2.5.43.29c-.57,2.28-.93,4.99-.93,6.99,0,5.42,3.99,8.2,7.41,8.2,2,0,3.78-1.07,3.78-3.21,0-2.78-.86-7.34-1.78-11.55,2-2.35,4.13-4.49,6.42-6.42l.43.21c.86,5.35,1.14,9.7,1.14,12.69,0,3.21-1.28,7.27-2.57,9.77-2.71,4.49-6.42,7.84-10.55,7.84-3.07,0-6.34-2.28-8.91-5.92h-.57c-2.57,2.85-6.13,6.13-11.26,6.13-6.92,0-11.83-5.42-11.76-13.62-6.99,2.21-12.05,3.78-16.54,5.99.57,1.78.86,3.64.86,5.28,0,2.99-.14,5.99-.29,8.98-.21,5.06-1.85,9.12-5.49,13.54-6.13,6.42-11.12,8.7-15.75,8.7-4.99,0-10.76-2.35-17.25-6.92l1.07-2c2.99,1.35,5.85,1.85,8.7,1.85,6.77,0,12.76-3.14,18.39-7.91,4.56-4.71,7.06-8.2,7.06-11.62,0-2.35-2.42-5.49-5.2-8.55.43-2.57,1.14-5.49,2.14-8.63,8.27-3.42,17.18-6.34,26.59-8.41l.14.5c-.36,1.43-.43,2.85-.43,4.28,0,4.85,4.28,9.41,9.05,9.41,2.07,0,4.42-.71,6.34-2.07ZM949.67,485.51c-2.92-2.78-5.49-5.06-8.34-7.41,1.85-2.57,3.85-4.92,5.63-6.77,2.92,2.28,5.35,4.63,8.13,7.63-2,2.85-3.42,4.71-5.42,6.56ZM953.52,470.33c-2.92-2.78-5.49-5.06-8.34-7.41,1.85-2.57,3.85-4.92,5.63-6.77,2.92,2.28,5.35,4.63,8.13,7.63-2,2.85-3.42,4.71-5.42,6.56ZM963.43,484.58c-2.92-2.78-5.49-5.06-8.34-7.41,1.85-2.57,3.85-4.92,5.63-6.77,2.92,2.28,5.35,4.63,8.13,7.63-2,2.85-3.42,4.71-5.42,6.56Z"/>
</svg>